# xmcd CD database file
#
# Track frame offsets:
#	150
#	15858
#	29808
#	46138
#	64888
#	77788
#	104050
#	123343
#	139028
#	154063
#	171293
#	194148
#	209038
#	239903
#	258223
#	278338
#
# Disc length: 3935 seconds
#
# Revision: 0
# Processed by: cddbd v1.4PL0 Copyright (c) Steve Scherf et al.
# Submitted via: CDex 1.50Beta6
#
DISCID=ed0f5d10
DTITLE=Varios - Salva Al Planteta
DYEAR=2000
DGENRE=Rhythmic Soul
TTITLE0=Words - F.r. David
TTITLE1=Imagina - John Lennon
TTITLE2=Unchaimed Melody - The Righteus Brothers
TTITLE3=Love Theme "top Gun" - Berlin
TTITLE4=Stnad By Me - Ben E. King
TTITLE5=Always - Bon Jovi
TTITLE6=Mi Vida Sin Ti - Michel Bolton
TTITLE7=Hombre De Hojalata - America
TTITLE8=Polvo En El Viento - Kansas
TTITLE9=Problemas - Lindsey Buckinham
TTITLE10=Nueo Chico En El Pueblo - Eagles
TTITLE11=Mujer De Negro - The Hollies
TTITLE12=Rock De La Langosta - The B-52's
TTITLE13=Blues De La Cabaña - Doors
TTITLE14=Dueño De Un Corazón Solitario /yes
TTITLE15=Otro Ladrillo En La Pared - Pink Floyd
EXTD=YEAR: 2000
EXTT0=
EXTT1=
EXTT2=
EXTT3=
EXTT4=
EXTT5=
EXTT6=
EXTT7=
EXTT8=
EXTT9=
EXTT10=
EXTT11=
EXTT12=
EXTT13=
EXTT14=
EXTT15=
PLAYORDER=
